<svg width="21" height="21" viewBox="0 0 21 21" fill="none" xmlns="http://www.w3.org/2000/svg">
<path fill-rule="evenodd" clip-rule="evenodd" d="M6.6628 0.614238C7.72947 0.566169 8.0703 0.554565 10.7861 0.554565C13.502 0.554565 13.8428 0.566169 14.9095 0.614238C16.5345 0.688001 17.962 1.08416 19.1078 2.22375C20.2536 3.36334 20.652 4.78306 20.7261 6.3992C20.7745 7.46005 20.7861 7.79903 20.7861 10.5001C20.7861 13.2011 20.7745 13.5401 20.7261 14.6009C20.652 16.2171 20.2536 17.6368 19.1078 18.7764C17.962 19.916 16.5345 20.3121 14.9095 20.3859C13.8428 20.4339 13.502 20.4455 10.7861 20.4455C8.0703 20.4455 7.72947 20.4339 6.6628 20.3859C5.0378 20.3121 3.6103 19.916 2.46447 18.7764C1.31863 17.6368 0.920299 16.2171 0.846133 14.6009C0.797799 13.5401 0.786133 13.2011 0.786133 10.5001C0.786133 7.79903 0.797799 7.46005 0.846133 6.3992C0.920299 4.78306 1.31863 3.36334 2.46447 2.22375C3.6103 1.08416 5.0378 0.688001 6.6628 0.614238ZM14.8261 2.40457C13.7719 2.3565 13.4552 2.34656 10.7852 2.34656C8.11525 2.34656 7.79858 2.3565 6.74441 2.40457C5.60608 2.45596 4.55025 2.68305 3.73775 3.49112C2.92525 4.29919 2.69691 5.34927 2.64525 6.4814C2.59691 7.52982 2.58691 7.84476 2.58691 10.5002C2.58691 13.1557 2.59691 13.4706 2.64525 14.519C2.69691 15.6511 2.92525 16.7012 3.73775 17.5093C4.55025 18.3174 5.60608 18.5444 6.74441 18.5958C7.79858 18.6439 8.11525 18.6539 10.7852 18.6539C13.4552 18.6539 13.7719 18.6439 14.8261 18.5958C15.9644 18.5444 17.0202 18.3174 17.8327 17.5093C18.6452 16.7012 18.8736 15.6511 18.9252 14.519C18.9736 13.4706 18.9836 13.1557 18.9836 10.5002C18.9836 7.84476 18.9736 7.52982 18.9252 6.4814C18.8736 5.34927 18.6452 4.29919 17.8327 3.49112C17.0202 2.68305 15.9644 2.45596 14.8261 2.40457ZM5.64941 10.4995C5.64941 7.67909 7.94858 5.39246 10.7844 5.39246C13.6202 5.39246 15.9194 7.67909 15.9194 10.4995C15.9194 13.3198 13.6202 15.6065 10.7844 15.6065C7.94858 15.6065 5.64941 13.3198 5.64941 10.4995ZM7.4502 10.4996C7.4502 12.3304 8.94269 13.8148 10.7835 13.8148C12.6244 13.8148 14.1169 12.3304 14.1169 10.4996C14.1169 8.66881 12.6244 7.18445 10.7835 7.18445C8.94269 7.18445 7.4502 8.66881 7.4502 10.4996ZM17.3228 5.19139C17.3228 5.85052 16.7856 6.38485 16.1228 6.38485C15.4601 6.38485 14.9229 5.85052 14.9229 5.19139C14.9229 4.53226 15.4601 3.99792 16.1228 3.99792C16.7856 3.99792 17.3228 4.53226 17.3228 5.19139Z" fill="white"/>
</svg>
