<svg width="21" height="19" viewBox="0 0 21 19" fill="none" xmlns="http://www.w3.org/2000/svg">
<g clip-path="url(#clip0_596_2380)">
<path d="M16.6195 0H4.9528C2.6528 0 0.786133 1.77333 0.786133 3.95833V15.0417C0.786133 17.2267 2.6528 19 4.9528 19H16.6195C18.9195 19 20.7861 17.2267 20.7861 15.0417V3.95833C20.7861 1.77333 18.9195 0 16.6195 0ZM7.4528 15.0417H4.9528V6.33333H7.4528V15.0417ZM6.2028 5.32792C5.39447 5.32792 4.74447 4.7025 4.74447 3.93458C4.74447 3.16667 5.39447 2.54125 6.2028 2.54125C7.01113 2.54125 7.66113 3.16667 7.66113 3.93458C7.66113 4.7025 7.01113 5.32792 6.2028 5.32792ZM17.4528 15.0417H14.9528V10.6083C14.9528 7.94042 11.6195 8.14625 11.6195 10.6083V15.0417H9.11947V6.33333H11.6195V7.73458C12.7861 5.68417 17.4528 5.53375 17.4528 9.69792V15.0496V15.0417Z" fill="white"/>
</g>
<defs>
<clipPath id="clip0_596_2380">
<rect width="20" height="19" fill="white" transform="translate(0.786133)"/>
</clipPath>
</defs>
</svg>
