<svg width="16" height="16" viewBox="0 0 16 16" fill="none" xmlns="http://www.w3.org/2000/svg">
  <path fill-rule="evenodd" clip-rule="evenodd" d="M4.01263 12.0353C4.0187 12.0353 4.02075 12.0346 4.02137 12.0353H4.01263ZM11.9787 9.53525C11.9787 8.98297 12.4264 8.53525 12.9787 8.53525C13.531 8.53525 13.9787 8.98297 13.9787 9.53525V12.0417C13.9787 13.1319 13.0855 14.0353 11.9876 14.0353H4.01263C2.92006 14.0353 2.02148 13.139 2.02148 12.0399V4.03065C2.02148 2.93543 2.92065 2.03525 4.02267 2.03525H5.97873C6.53101 2.03525 6.97873 2.48297 6.97873 3.03525C6.97873 3.58754 6.53101 4.03525 5.97873 4.03525C5.97873 4.03525 4.02148 4.03949 4.02148 4.03065C4.02148 4.03065 4.02142 12.0353 4.02137 12.0353C4.02137 12.0353 11.9795 12.0345 11.9787 12.0417V9.53525ZM11.3689 6.03071L8.83499 8.56464C8.36863 9.031 7.61568 9.03418 7.14598 8.56448C6.67952 8.09802 6.67615 7.34513 7.14581 6.87546L9.67974 4.34153L8.82736 3.48916C8.37145 3.03325 8.51985 2.57675 9.17276 2.48347L12.7205 1.97665C13.378 1.88272 13.8271 2.33706 13.7338 2.98997L13.227 6.53769C13.133 7.19523 12.6834 7.34524 12.2213 6.88309L11.3689 6.03071Z" fill="white"/>
</svg>
