<svg width="12" height="13" viewBox="0 0 12 13" fill="none" xmlns="http://www.w3.org/2000/svg">
  <path fill-rule="evenodd" clip-rule="evenodd" d="M10.4981 4.3141C10.0651 3.42467 9.37605 2.68286 8.52684 2.18455C8.04515 2.85916 7.04924 3.89835 6.75572 3.89835C6.39962 3.89835 6.3277 2.14342 6.31334 1.50966C6.20972 1.50325 6.10524 1.5 6 1.5C5.53645 1.5 5.08763 1.56308 4.66166 1.68113C5.0743 1.65008 5.35004 1.6627 5.35004 1.6627C5.35004 1.6627 5.73475 2.52073 5.73475 2.91011C5.73475 3.29948 5.4816 3.5845 5.4816 3.76245C5.4816 3.94041 6.32115 4.22262 6.32115 4.7316C6.32115 5.24058 4.253 5.82054 4.36557 6.3C4.47814 6.77946 4.95207 7.11627 4.53702 7.11627C4.12197 7.11627 4.00516 6.16709 3.37526 6.16709C2.74536 6.16709 2.06942 6.45323 2.18899 6.69725C2.30856 6.94127 2.92541 7.58406 3.24571 7.58406C3.56602 7.58406 3.57292 8.3169 3.81917 8.47904C4.06542 8.64118 4.45153 8.69748 4.45153 8.69748C4.58629 8.72445 4.70834 8.64339 4.74481 8.50851C4.74481 8.50851 4.71388 8.08764 5.35004 8.08764C5.9862 8.08764 6.22937 8.77746 6.55 8.93989C6.87062 9.10231 7.69234 9.49651 7.80746 9.79387C7.92257 10.0912 7.75441 10.6107 7.47888 10.7834C7.32012 10.8828 7.10928 11.1768 6.95907 11.4081C8.08814 11.1888 9.08153 10.5895 9.80084 9.74878C9.3385 9.71275 8.67097 9.59635 8.38008 9.22037C7.95877 8.6758 8.4607 8.06758 8.67788 7.64734C8.89506 7.2271 9.35923 6.52059 9.35923 6.38208C9.35923 6.24358 9.19584 6.22959 8.90662 6.01798C8.6174 5.80636 8.84628 5.30269 9.09062 5.30269C9.33496 5.30269 9.83529 5.79942 10.0419 5.79942C10.2484 5.79942 9.65312 5.33134 9.65312 4.84589C9.65312 4.48914 10.2053 4.35836 10.4981 4.3141ZM1.10009 5.49964C1.03446 5.82286 1 6.15741 1 6.5C1 8.86881 2.64728 10.8529 4.85881 11.3692C4.92218 11.1069 5.04869 10.5059 4.95207 10.2341C4.82656 9.88097 4.00516 9.77969 4.00516 9.35376C4.00516 8.92783 4.4793 8.83601 4.4793 8.83601C4.4793 8.83601 1.71863 8.63232 1.10009 5.49964ZM6 12.5C2.68629 12.5 0 9.81371 0 6.5C0 3.18629 2.68629 0.5 6 0.5C9.31371 0.5 12 3.18629 12 6.5C12 9.81371 9.31371 12.5 6 12.5Z" fill="#333333"/>
</svg>
