<svg xmlns="http://www.w3.org/2000/svg" viewBox="0 0 256 107">
  <path d="M46.8 8.6c3.1-3.9 5.2-9.3 4.6-14.7-4.5.2-9.9 3-13.1 6.8-2.9 3.3-5.4 8.7-4.7 13.8 5 .4 10.1-2.5 13.2-5.9" transform="translate(0 6)" fill="#000"/>
  <path d="M51.3 15.3c-7.3-.4-13.5 4.1-17 4.1-3.4 0-8.7-3.9-14.3-3.8C12.5 15.7 5.7 20 2 27c-7.6 13.2-2 32.7 5.4 43.4 3.6 5.3 7.9 11.1 13.6 10.9 5.4-.2 7.5-3.5 14-3.5s8.4 3.5 14.2 3.4c5.9-.1 9.6-5.3 13.2-10.7 4.1-6.1 5.8-12 5.9-12.3-.1-.1-11.3-4.3-11.4-17.2-.1-10.7 8.7-15.9 9.1-16.1-5-7.4-12.7-8.2-15.5-8.4l-.2-.2z" transform="translate(0 6)" fill="#000"/>
  <path d="M109.3 7.2c14.9 0 25.3 10.3 25.3 25.2 0 15-10.6 25.3-25.7 25.3h-16.5v26.2H81.5V7.2h27.8zm-20.9 40.3h13.7c10.4 0 16.3-5.6 16.3-15.1 0-9.5-5.9-15-16.2-15H88.4v30.1z" fill="#000"/>
  <path d="M139.6 64.4c0-9.8 7.5-15.8 20.8-16.6l15.3-.9v-4.3c0-6.2-4.2-9.9-11.2-9.9-6.6 0-10.9 3.2-11.9 8.2h-10c.5-10 9.2-17.5 22.3-17.5 13.1 0 21.5 7 21.5 17.8v37.3h-10.2v-8.9h-.2c-3 6-9.6 9.8-16.4 9.8-10.2 0-17-6.6-17-15zm36.1-4.8v-4.4l-13.8.8c-7.3.5-11.4 3.4-11.4 8.1 0 4.8 4.3 7.9 10.8 7.9 8.4 0 14.4-5.8 14.4-12.4z" fill="#000"/>
  <path d="M196.6 100.2c-.1 0 3.8-12.5 3.8-12.5L183.7 45h11.5l10.6 33.5h.2L216.6 45H228L210 100.2h-13.4z" fill="#000"/>
</svg>
