<svg xmlns="http://www.w3.org/2000/svg" viewBox="0 0 256 83">
  <path d="M132.4 0l-19.7 82.6h-22.6L110 0h22.4zm91.7 53.4l11.9-32.8 6.8 32.8h-18.7zM235 82.6h20.9L237.7 0h-19.3c-4.3 0-8 2.5-9.6 6.4L177.5 82.6h23.9l4.7-13.1h29.2L235 82.6zM189.7 56c.1-17.8-24.6-18.8-24.4-26.7.1-2.4 2.4-5 7.4-5.6 2.5-.3 9.4-.6 17.2 3l3.1-14.3C188.9 10.6 183.6 9 176.9 9c-22.5 0-38.4 12-38.5 29.1-.1 12.7 11.3 19.7 19.9 23.9 8.9 4.3 11.9 7 11.9 10.8-.1 5.8-7.1 8.4-13.7 8.5-11.5.2-18.2-3.1-23.5-5.6l-4.2 19.4c5.4 2.5 15.3 4.6 25.5 4.7 23.9.1 39.5-11.8 39.6-30.1M107.8 0L73.7 82.6H49.6L33 13.2C31 5.4 29.3 2.7 23.2.1L.3 0h.5l36.7.7c5.2.1 9.8 3.5 11 9.5L57 55.5 80.8 0h27z" fill="#1A1F71"/>
</svg>
