<svg xmlns="http://www.w3.org/2000/svg" width="512" height="512"><path d="m363.562 435.006-194.863.175c-9.129-.007-18.51.5-27.566-.724-30.507-4.122-56.85-26.71-63.435-57.316-2.125-9.88-1.898-19.565-1.905-29.592l.005-190.788c.095-35.762 17.862-65.183 53.401-76.267 6.495-2.025 12.854-2.74 19.604-2.806l211.605-.017c34.087.091 62.8 20.213 72.643 53.503 3.111 10.521 2.958 17.824 2.97 28.664l-.025 198.592c-.18 41.648-29.717 74.802-72.434 76.576m-26.58-272.944c-9.381 2.235-16.656 14.972-22.34 22.102l-79.684 96.042c-1.564 1.936-3.304 3.844-4.705 5.896l-40.962-46.939c-4.079-4.779-7.84-9.253-14.625-9.458-8.86-.267-16.356 5.503-16.454 14.851-.066 6.208 4.832 10.69 8.651 15.033l7.466 8.556 36.162 41.499c3.13 3.634 6.273 7.802 10.137 10.649 5.556 4.093 15.662 3.42 20.765-.97 1.993-1.714 3.677-3.867 5.367-5.878l97.906-118.723c3.632-4.274 9.44-9.306 9.848-15.27.58-8.476-4.396-15.997-13.014-17.244l-.466-.07c-1.368-.192-2.676-.144-4.052-.076"/></svg>