<svg width="18" height="18" viewBox="0 0 18 18" fill="none" xmlns="http://www.w3.org/2000/svg">
<path opacity="0.2" d="M6.50391 8.77508C7.08273 9.97041 8.04929 10.9345 9.24609 11.5102C9.33437 11.552 9.43202 11.5701 9.52942 11.5627C9.62681 11.5553 9.72061 11.5227 9.80156 11.4681L11.5594 10.2938C11.637 10.2412 11.7268 10.209 11.8202 10.2004C11.9137 10.1918 12.0078 10.207 12.0938 10.2446L15.3844 11.6579C15.4968 11.7047 15.5908 11.7872 15.6518 11.8926C15.7128 11.9981 15.7374 12.1207 15.7219 12.2415C15.6176 13.0555 15.2202 13.8037 14.6042 14.3459C13.9882 14.8882 13.1957 15.1874 12.375 15.1876C9.83887 15.1876 7.40661 14.1801 5.61329 12.3868C3.81998 10.5935 2.8125 8.16122 2.8125 5.62508C2.81268 4.80439 3.1119 4.01189 3.65416 3.39587C4.19642 2.77984 4.94456 2.38251 5.75859 2.27821C5.87942 2.26269 6.00199 2.28732 6.10745 2.3483C6.2129 2.40929 6.29538 2.50324 6.34219 2.61571L7.75547 5.91337C7.79222 5.99798 7.8076 6.09034 7.80024 6.18231C7.79288 6.27427 7.76302 6.36301 7.71328 6.44071L6.53906 8.22665C6.48679 8.30742 6.4561 8.40026 6.44995 8.49628C6.44379 8.5923 6.46237 8.68829 6.50391 8.77508Z" fill="#6C727F"/>
<path fill-rule="evenodd" clip-rule="evenodd" d="M5.68711 1.72027C5.93023 1.68908 6.17686 1.73866 6.38905 1.86137C6.60029 1.98353 6.76573 2.17144 6.86017 2.39637L8.27141 5.68928C8.27161 5.68975 8.27182 5.69022 8.27202 5.69069C8.34508 5.85955 8.37562 6.04375 8.36095 6.22716C8.34623 6.41109 8.28651 6.58857 8.18703 6.74397L8.18333 6.74976L7.01131 8.53227C7.53437 9.61109 8.40677 10.4814 9.48683 11.0018L9.48911 11.0003L11.2455 9.82702C11.4014 9.72177 11.5813 9.65754 11.7686 9.64028C11.9559 9.62303 12.1446 9.65332 12.317 9.72833C12.3177 9.72863 12.3184 9.72894 12.3191 9.72925L15.604 11.14C15.8288 11.2345 16.0166 11.3999 16.1387 11.611C16.2614 11.8232 16.311 12.0699 16.2798 12.313C16.1581 13.2627 15.6946 14.1355 14.9759 14.7681C14.2572 15.4008 13.3326 15.7499 12.3751 15.7501C9.68981 15.7501 7.11435 14.6833 5.21554 12.7845C3.31674 10.8857 2.25 8.3104 2.25 5.62508C2.25022 4.66761 2.5993 3.7429 3.23194 3.0242C3.86453 2.30555 4.73747 1.84199 5.68711 1.72027ZM6.50391 8.77508L5.99652 9.01791C5.91345 8.84432 5.87629 8.65234 5.8886 8.4603C5.90091 8.26826 5.96228 8.08258 6.06683 7.92103L6.06904 7.91762L7.23951 6.1374L7.23844 6.13495L5.82517 2.83729C5.14879 2.92521 4.52713 3.25547 4.07638 3.76753C3.62453 4.28085 3.37518 4.94122 3.375 5.62508M6.50391 8.77508L5.99764 9.02024C6.63186 10.3299 7.69091 11.3863 9.00224 12.0171L9.00537 12.0186C9.18193 12.1022 9.37722 12.1384 9.57202 12.1236C9.76631 12.1089 9.95343 12.0439 10.1151 11.9351C10.1155 11.9348 10.1159 11.9345 10.1163 11.9343L11.8718 10.7616L15.1624 12.1747L15.1633 12.1751C15.0753 12.8515 14.7446 13.473 14.2326 13.9237C13.7192 14.3756 13.0589 14.6249 12.375 14.6251M3.375 5.62508C3.37503 8.01199 4.32324 10.3012 6.01104 11.989C7.69884 13.6768 9.9881 14.6251 12.375 14.6251" fill="#6C727F"/>
</svg>
