<svg width="89" height="68" viewBox="0 0 89 68" fill="none" xmlns="http://www.w3.org/2000/svg">
<g clip-path="url(#clip0_623_5870)">
<mask id="mask0_623_5870" style="mask-type:luminance" maskUnits="userSpaceOnUse" x="55" y="15" width="33" height="38">
<path d="M63.7951 21.2793C59.3163 24.8497 57.6507 27.0781 56.2296 29.9158C54.4391 33.4945 58.0457 38.6926 60.7357 39.273C60.4792 38.4371 59.6891 36.256 65.2589 29.4707C66.4987 27.9614 71.0972 22.8496 74.9928 19.2099C77.1886 17.1574 79.263 15.4399 80.8174 15.9323C82.5942 16.4941 83.2578 18.1879 82.7191 20.0441C82.2317 21.7176 81.2757 23.5129 79.1911 25.9191C72.7834 33.3186 51.0975 43.065 69.2708 52.7201C63.7472 46.3544 77.3528 38.6876 85.1491 30.0173C85.6639 29.3455 86.088 28.6315 86.4215 27.8937C87.9041 24.606 87.6185 20.7836 85.1679 18.1964C82.531 15.4129 78.9141 15.2606 78.4045 15.1574C77.8726 15.0491 77.334 15 76.7901 15C71.9574 15 66.7433 18.9256 63.7951 21.276" fill="white"/>
</mask>
<g mask="url(#mask0_623_5870)">
<path d="M56.795 1.82587L37.3076 46.8794L82.2057 65.8925L101.693 20.8389L56.795 1.82587Z" fill="url(#paint0_linear_623_5870)"/>
</g>
<g style="mix-blend-mode:multiply" opacity="0.5">
<mask id="mask1_623_5870" style="mask-type:luminance" maskUnits="userSpaceOnUse" x="62" y="38" width="9" height="11">
<path d="M70.3195 38.9038H62.1709V48.3389H70.3195V38.9038Z" fill="white"/>
</mask>
<g mask="url(#mask1_623_5870)">
<path d="M62.4309 45.4237C63.6246 46.3171 64.8832 47.0363 66.2205 47.6928C66.241 47.7012 66.2581 47.7097 66.2769 47.7182C66.3419 47.7435 66.4069 47.7689 66.4719 47.7943C66.7968 47.9161 67.1251 48.0295 67.4569 48.1361C67.6826 48.2089 67.9118 48.2749 68.1392 48.3392C68.4505 47.0566 69.2286 45.7317 70.3196 44.3661C68.5223 42.6453 66.7643 40.8838 64.9516 39.1782C64.8541 39.0868 64.7549 38.9954 64.6557 38.9058C62.9525 40.9887 61.9264 43.1258 62.224 45.2917C62.2975 45.3323 62.3676 45.3763 62.4326 45.4254" fill="#353535"/>
</g>
</g>
<g style="mix-blend-mode:multiply" opacity="0.5">
<mask id="mask2_623_5870" style="mask-type:luminance" maskUnits="userSpaceOnUse" x="70" y="28" width="13" height="11">
<path d="M82.7551 28.4688H70.4766V38.6687H82.7551V28.4688Z" fill="white"/>
</mask>
<g mask="url(#mask2_623_5870)">
<path d="M76.568 28.4688C74.7552 30.0373 72.5817 31.6888 70.4766 33.4029C71.6001 34.4537 72.7236 35.5028 73.8232 36.5789C74.5381 37.2795 75.2563 37.9783 75.9797 38.6704C78.1908 36.6805 80.5799 34.6229 82.7551 32.4993C80.6466 31.2319 78.5961 29.8664 76.568 28.4704" fill="#353535"/>
</g>
</g>
<g style="mix-blend-mode:multiply" opacity="0.5">
<mask id="mask3_623_5870" style="mask-type:luminance" maskUnits="userSpaceOnUse" x="55" y="20" width="16" height="17">
<path d="M70.0817 20.0186H55.751V36.1289H70.0817V20.0186Z" fill="white"/>
</mask>
<g mask="url(#mask3_623_5870)">
<path d="M65.4216 20.0186C64.8265 20.4653 64.281 20.8934 63.797 21.2792C59.3183 24.8495 57.6526 27.078 56.2315 29.9156C55.267 31.8429 55.869 34.2372 57.0473 36.1289C56.4915 33.5637 57.338 30.8293 59.8279 29.3944C61.5978 28.3741 63.6517 28.3927 65.4661 29.2269C66.3023 28.2353 68.0501 26.2742 70.0817 24.1303C68.3699 22.9306 66.7555 21.6227 65.4216 20.0186Z" fill="#353535"/>
</g>
</g>
<mask id="mask4_623_5870" style="mask-type:luminance" maskUnits="userSpaceOnUse" x="72" y="15" width="11" height="14">
<path d="M74.9947 19.2101C74.3295 19.8311 73.6506 20.5079 72.9785 21.2084C73.17 21.2017 73.3633 21.2033 73.5565 21.2169C78.2251 21.5553 78.6766 25.7483 77.3427 28.0157C79.5846 25.5182 81.8266 23.1154 82.721 20.0426C83.2614 18.1864 82.5978 16.4926 80.8193 15.9308C80.6364 15.8733 80.4483 15.8462 80.2516 15.8462C78.7758 15.8462 76.9323 17.3961 74.9947 19.2084" fill="white"/>
</mask>
<g mask="url(#mask4_623_5870)">
<path d="M78.3124 10.7592L66.8301 21.6963L77.9204 33.0955L89.4027 22.1583L78.3124 10.7592Z" fill="url(#paint1_linear_623_5870)"/>
</g>
<mask id="mask5_623_5870" style="mask-type:luminance" maskUnits="userSpaceOnUse" x="50" y="17" width="39" height="31">
<path d="M52.1406 20.5381C49.9106 23.6989 50.4391 27.3471 50.4339 27.8767C50.3758 33.3252 55.9781 38.5623 59.1486 41.3576C63.4752 45.1733 65.9668 46.4254 69.0074 47.3171C72.8414 48.4407 77.2501 43.8585 77.3151 41.0564C76.5455 41.4693 74.5618 42.669 66.8851 38.3609C65.1767 37.4015 59.3196 33.7533 55.0324 30.535C52.6143 28.7194 50.5485 26.9647 50.74 25.3166C50.9572 23.4333 52.4878 22.4519 54.4048 22.6448C56.132 22.8191 58.0661 23.4417 60.8091 25.078C69.2417 30.1103 82.825 49.9974 88.8685 29.9986C83.6784 36.7196 73.6366 24.5298 63.7043 18.3469C62.9502 17.9577 62.1738 17.665 61.3906 17.4704C60.5817 17.269 59.7625 17.1675 58.9571 17.1675C56.2808 17.1675 53.7361 18.2809 52.144 20.5381" fill="white"/>
</mask>
<g mask="url(#mask5_623_5870)">
<path d="M61.4263 -0.413988L34.7773 40.2983L77.3585 67.5864L104.007 26.8741L61.4263 -0.413988Z" fill="url(#paint2_linear_623_5870)"/>
</g>
<mask id="mask6_623_5870" style="mask-type:luminance" maskUnits="userSpaceOnUse" x="50" y="22" width="14" height="11">
<path d="M50.7387 25.3149C50.5489 26.963 52.6147 28.7177 55.0311 30.5333C55.763 31.0832 56.5513 31.6348 57.3619 32.178C57.3192 31.9868 57.285 31.7939 57.2627 31.5976C56.7206 26.8597 60.736 25.6245 63.2019 26.5349C60.3409 24.7565 57.574 22.9612 54.4017 22.6414C54.2427 22.6261 54.0854 22.6177 53.9332 22.6177C52.2402 22.6177 50.9371 23.5856 50.737 25.3132" fill="white"/>
</mask>
<g mask="url(#mask6_623_5870)">
<path d="M54.1959 16.9459L46.1719 29.4229L59.5564 37.8502L67.5805 25.3732L54.1959 16.9459Z" fill="url(#paint3_linear_623_5870)"/>
</g>
<path d="M1.4999 17.8885C1.59224 17.9579 1.73247 17.9917 1.92229 17.9917C1.97359 17.9917 2.02661 17.99 2.08304 17.9849L3.90088 17.8547C4.06505 17.8411 4.2087 17.8343 4.33012 17.8343C4.59005 17.8343 4.81921 17.8614 5.01245 17.9173L5.11164 17.9376L5.14242 17.8479C5.18859 17.7244 5.21082 17.611 5.21082 17.5061C5.21082 17.479 5.2074 17.4519 5.20398 17.4232C5.18346 17.2083 5.11506 17.0577 4.99706 16.9714C4.89958 16.902 4.75935 16.8682 4.57466 16.8682C4.52336 16.8682 4.47035 16.8699 4.41391 16.8749L2.59607 16.9985C2.43703 17.012 2.29509 17.0188 2.16684 17.0188C1.91032 17.0188 1.68288 16.9934 1.4845 16.9426L1.38532 16.9155L1.35454 17.0052C1.30836 17.1287 1.28613 17.2455 1.28613 17.3555C1.28613 17.3826 1.28955 17.4096 1.29468 17.4367C1.3152 17.6516 1.38361 17.8022 1.50161 17.8885" fill="white"/>
<path d="M1.4999 16.4231C1.59224 16.4925 1.73247 16.5263 1.92229 16.5263C1.97873 16.5263 2.03174 16.5247 2.08304 16.5196L3.90088 16.3961C4.05992 16.3825 4.20357 16.3757 4.33012 16.3757C4.58492 16.3757 4.81408 16.4011 5.01245 16.4502L5.11164 16.4773L5.14242 16.3876C5.18859 16.259 5.21082 16.1439 5.21082 16.0373C5.21082 16.0103 5.2074 15.9832 5.20398 15.9544C5.18346 15.7395 5.11506 15.5889 4.99706 15.5026C4.90471 15.4333 4.76448 15.3994 4.57466 15.3994C4.51823 15.3994 4.46522 15.4011 4.41391 15.4062L2.59607 15.5365C2.43703 15.55 2.29509 15.5568 2.16684 15.5568C1.91032 15.5568 1.68288 15.5297 1.4845 15.4739L1.38532 15.4536L1.35454 15.5432C1.30836 15.6668 1.28613 15.7801 1.28613 15.8867C1.28613 15.9138 1.28955 15.9409 1.29468 15.968C1.3152 16.1829 1.38361 16.3334 1.50161 16.4197" fill="white"/>
<path d="M4.30774 25.3641V21.7668C4.30774 20.9038 4.40522 20.1694 4.59846 19.567C4.10253 19.43 3.61173 19.3623 3.12606 19.3623C2.29666 19.3623 1.88281 19.7329 1.88281 20.4723V25.3641C1.88281 26.3422 2.20773 27.1476 2.85757 27.7821C3.53819 28.4488 4.44284 28.7822 5.57322 28.7822H38.5543C39.5462 28.7822 40.3721 28.5199 41.0322 27.9937C41.6923 28.5182 42.5183 28.7822 43.5102 28.7822C44.6662 28.7822 45.5845 28.4471 46.2652 27.7754C46.9047 27.1408 47.2245 26.332 47.2245 25.3506C47.2245 24.3692 46.903 23.5621 46.2583 22.9326C45.5777 22.2659 44.6645 21.9326 43.5187 21.9326C42.373 21.9326 41.4803 22.2659 40.7945 22.9326C40.1447 23.5671 39.8198 24.3743 39.8198 25.3506V25.3641C39.8146 26.7297 39.3871 27.4133 38.5389 27.4133H35.984C36.4184 26.8295 36.6356 26.1408 36.6356 25.3506C36.6356 24.3692 36.3141 23.5621 35.6693 22.9326C34.9887 22.2659 34.0789 21.9326 32.9383 21.9326L29.9234 22.1932C29.5968 22.2304 29.2736 22.4741 28.9572 22.9258C29.3762 23.1492 29.6532 23.5248 29.7866 24.0494L30.6912 27.4133H5.58177C4.73185 27.4133 4.30774 26.7314 4.30774 25.3641ZM42.5594 23.9039C42.7902 23.5012 43.11 23.3015 43.5187 23.3015C43.9274 23.3015 44.2609 23.5028 44.4849 23.9039C44.6953 24.2694 44.7996 24.7533 44.7996 25.3557C44.7996 26.7263 44.3721 27.4116 43.5187 27.4116C42.6654 27.4116 42.2447 26.7263 42.2447 25.3557C42.2447 24.7567 42.349 24.2727 42.5594 23.9039ZM32.94 23.3015C33.3539 23.3015 33.6737 23.5028 33.8994 23.9039C34.1097 24.2694 34.214 24.7533 34.214 25.3557C34.214 26.7263 33.7865 27.4116 32.9332 27.4116H32.9178L31.8524 23.4521L32.9417 23.3015H32.94Z" fill="white"/>
<path d="M1.47607 34.4811C1.72233 34.701 2.02159 34.8093 2.37388 34.8093C2.70564 34.8093 3.00319 34.6977 3.26313 34.4743C3.52478 34.251 3.65474 33.9718 3.65474 33.6384C3.65474 33.3051 3.53162 33.0462 3.28707 32.8228C3.04082 32.5995 2.74668 32.4878 2.40466 32.4878C2.06264 32.4878 1.75995 32.5995 1.50001 32.8228C1.23837 33.0462 1.1084 33.3186 1.1084 33.6384C1.1084 33.9802 1.23153 34.2611 1.47607 34.4811Z" fill="white"/>
<path d="M4.62916 32.8228C4.37264 33.0462 4.24609 33.3186 4.24609 33.6384C4.24609 33.9768 4.36922 34.2577 4.61377 34.4811C4.86002 34.701 5.15587 34.8093 5.50302 34.8093C5.85017 34.8093 6.13918 34.6977 6.40083 34.4743C6.65563 34.251 6.78389 33.9718 6.78389 33.6384C6.78389 33.3051 6.66076 33.0462 6.41622 32.8228C6.17167 32.5995 5.87582 32.4878 5.5338 32.4878C5.19178 32.4878 4.88909 32.5995 4.62916 32.8228Z" fill="white"/>
<path d="M13.8893 43.5391C13.5472 43.5391 13.2446 43.6507 12.9846 43.8741C12.7281 44.0975 12.6016 44.3699 12.6016 44.6897C12.6016 45.0315 12.7247 45.3124 12.9692 45.5323C13.2086 45.7523 13.5079 45.8606 13.867 45.8606C14.1988 45.8606 14.4929 45.7489 14.7495 45.5256C15.0111 45.3022 15.1411 45.023 15.1411 44.6897C15.1411 44.3563 15.0179 44.0975 14.7734 43.8741C14.5289 43.6507 14.233 43.5391 13.891 43.5391" fill="white"/>
<path d="M12.0102 44.6897C12.0102 44.3699 11.8871 44.0975 11.6425 43.8741C11.3963 43.6507 11.1021 43.5391 10.7601 43.5391C10.4181 43.5391 10.1154 43.6507 9.85548 43.8741C9.59384 44.0975 9.46387 44.3699 9.46387 44.6897C9.46387 45.0315 9.58699 45.3124 9.83154 45.5323C10.0761 45.7523 10.3754 45.8606 10.7293 45.8606C11.0611 45.8606 11.3587 45.7489 11.6186 45.5256C11.8785 45.3022 12.0102 45.023 12.0102 44.6897Z" fill="white"/>
<path d="M31.4129 42.456H32.073C33.0649 42.456 33.8909 42.1903 34.5509 41.6607C35.211 42.1903 36.037 42.456 37.0289 42.456H37.8036C38.7954 42.456 39.6214 42.1937 40.2815 41.6674C40.9416 42.192 41.7676 42.456 42.7594 42.456H43.2434C44.3738 42.456 45.2784 42.1226 45.9591 41.4559C46.6038 40.8214 46.9287 40.0143 46.9338 39.0379V35.4406C46.9338 34.5776 47.0313 33.8415 47.2262 33.2341C46.7354 33.1021 46.2446 33.0344 45.7538 33.0344C44.9244 33.0344 44.5106 33.4016 44.5106 34.1376V39.0362C44.5055 40.4018 44.0814 41.0854 43.2366 41.0854H42.768C41.9232 41.0854 41.4991 40.4051 41.494 39.043V35.4389C41.494 34.5759 41.5914 33.8398 41.7864 33.2324C41.2956 33.1004 40.8048 33.0327 40.314 33.0327C39.4863 33.0327 39.0708 33.3999 39.0708 34.136V39.0346C39.0656 40.4001 38.6381 41.0837 37.7899 41.0837H37.0374C36.1944 41.0837 35.7685 40.4018 35.7634 39.0346V38.0075C35.7634 37.1394 35.8609 36.405 36.0541 35.801C35.5633 35.669 35.0742 35.603 34.5886 35.603C33.754 35.603 33.3385 35.9702 33.3385 36.7062V39.0362C33.3385 40.4018 32.9144 41.0854 32.0645 41.0854H31.2658C30.4228 41.0854 29.9969 40.4051 29.9918 39.043V38.0092C29.9918 37.1462 30.0893 36.4101 30.2825 35.8027C29.7917 35.6707 29.3009 35.6047 28.8101 35.6047C27.9824 35.6047 27.5669 35.9719 27.5669 36.7079V39.0379C27.5618 40.4035 27.1376 41.0871 26.2929 41.0871H25.8089C24.9607 41.0871 24.5349 40.4051 24.5349 39.0379V39.0244C24.5349 38.043 24.2134 37.2359 23.5687 36.6064C22.888 35.9397 21.9748 35.6064 20.8291 35.6064C19.6833 35.6064 18.7906 35.9397 18.1049 36.6064C17.455 37.2409 17.1301 38.0481 17.1301 39.0244V39.0379C17.125 40.4035 16.6975 41.0871 15.8492 41.0871H14.7907C13.9425 41.0871 13.515 40.4051 13.5098 39.0379V38.0108C13.5098 37.1428 13.6073 36.4084 13.8005 35.8044C13.3046 35.6724 12.8155 35.6064 12.335 35.6064C11.5005 35.6064 11.0849 35.9736 11.0849 36.7096V39.0396C11.0849 40.4051 10.6608 41.0888 9.81087 41.0888H8.67536C7.82715 41.0888 7.40133 40.4068 7.40133 39.0396V35.6064H3.68869C2.55319 35.6064 1.64512 35.9414 0.966209 36.6132C0.3215 37.2528 0 38.0633 0 39.0447C0 40.0261 0.32492 40.8214 0.974759 41.4559C1.66051 42.1226 2.56858 42.456 3.69725 42.456C4.7045 42.456 5.53903 42.1937 6.19742 41.6674C6.85239 42.192 7.67324 42.456 8.65997 42.456H9.81771C10.8096 42.456 11.6355 42.1903 12.2956 41.6607C12.9557 42.1903 13.7817 42.456 14.7736 42.456H15.8629C16.8548 42.456 17.6808 42.1937 18.3409 41.6674C19.001 42.192 19.827 42.456 20.8188 42.456C21.8107 42.456 22.6606 42.1937 23.319 41.6674C23.9791 42.192 24.8051 42.456 25.7969 42.456H26.2963C27.2933 42.456 28.1192 42.1937 28.7742 41.6674C29.4343 42.192 30.2603 42.456 31.2522 42.456H31.4061H31.4129ZM4.98153 39.0312C4.98153 39.6336 4.87722 40.1175 4.66687 40.483C4.44114 40.8857 4.11964 41.0854 3.70067 41.0854C3.28169 41.0854 2.97216 40.884 2.7413 40.483C2.53095 40.1124 2.42664 39.6285 2.42664 39.0312C2.42664 38.4339 2.52924 37.9448 2.73446 37.5794C2.96019 37.1766 3.28169 36.977 3.70067 36.977H4.98153V39.0329V39.0312ZM20.8325 41.0871C19.9843 41.0871 19.5585 40.4018 19.5585 39.0312C19.5585 38.4322 19.6628 37.9482 19.8731 37.5794C20.104 37.1766 20.4221 36.977 20.8325 36.977C21.2429 36.977 21.5747 37.1783 21.7987 37.5794C22.009 37.9448 22.1134 38.4288 22.1134 39.0312C22.1134 40.4018 21.6858 41.0871 20.8325 41.0871Z" fill="white"/>
<path d="M27.9758 32.8228C27.7193 33.0462 27.5928 33.3186 27.5928 33.6384C27.5928 33.9819 27.7159 34.2611 27.9604 34.4811C28.2067 34.701 28.5025 34.8093 28.8497 34.8093C29.1968 34.8093 29.4841 34.6977 29.739 34.4743C30.0006 34.251 30.1306 33.9718 30.1306 33.6384C30.1306 33.3051 30.0074 33.0462 29.7629 32.8228C29.5184 32.5995 29.2242 32.4878 28.8805 32.4878C28.5368 32.4878 28.2358 32.5995 27.9758 32.8228Z" fill="white"/>
<path d="M33.0004 32.4878C32.6583 32.4878 32.3591 32.5995 32.1026 32.8228C31.8426 33.0462 31.7109 33.3186 31.7109 33.6384C31.7109 33.9802 31.8341 34.2611 32.0786 34.4811C32.3249 34.701 32.6224 34.8093 32.9764 34.8093C33.3082 34.8093 33.6057 34.6977 33.8657 34.4743C34.1256 34.251 34.2573 33.9718 34.2573 33.6384C34.2573 33.3051 34.1324 33.0462 33.8811 32.8228C33.6399 32.5995 33.3475 32.4878 32.9986 32.4878" fill="white"/>
<path d="M35.2336 32.8228C34.9771 33.0462 34.8506 33.3186 34.8506 33.6384C34.8506 33.9819 34.9737 34.2611 35.2183 34.4811C35.4577 34.701 35.7552 34.8093 36.1075 34.8093C36.4598 34.8093 36.742 34.6977 36.9968 34.4743C37.2584 34.251 37.3884 33.9718 37.3884 33.6384C37.3884 33.3051 37.2653 33.0462 37.0207 32.8228C36.7762 32.5995 36.482 32.4878 36.1383 32.4878C35.7946 32.4878 35.4936 32.5995 35.2336 32.8228Z" fill="white"/>
<path d="M2.69997 48.292H0.0595703V48.7032H1.14207V51.6373H1.61577V48.7032H2.69997V48.292Z" fill="white"/>
<path d="M4.60855 49.6676C4.4991 49.5644 4.36913 49.4831 4.21864 49.4239C4.06815 49.3664 3.9074 49.3359 3.73639 49.3359C3.56538 49.3359 3.40292 49.3647 3.25414 49.4239C3.10365 49.4815 2.9754 49.5627 2.86766 49.6676C2.75992 49.7708 2.67442 49.8943 2.61285 50.0382C2.55129 50.182 2.52051 50.3393 2.52051 50.5136C2.52051 50.6879 2.55129 50.8453 2.61285 50.9908C2.67442 51.1363 2.75992 51.2615 2.86766 51.3664C2.9754 51.4714 3.10536 51.5543 3.25414 51.6118C3.40292 51.6693 3.56367 51.6998 3.73639 51.6998C3.90911 51.6998 4.06986 51.671 4.21864 51.6118C4.36913 51.5526 4.49739 51.4714 4.60855 51.3664C4.71799 51.2615 4.8035 51.1363 4.86677 50.9908C4.92833 50.847 4.95912 50.6862 4.95912 50.5136C4.95912 50.341 4.92833 50.182 4.86677 50.0382C4.80521 49.8943 4.71799 49.7708 4.60855 49.6676ZM4.44096 50.8216C4.40675 50.9197 4.35887 51.006 4.2956 51.0805C4.23232 51.1566 4.15195 51.2158 4.05789 51.2598C3.96384 51.3038 3.8561 51.3258 3.73468 51.3258C3.61326 51.3258 3.50553 51.3038 3.41147 51.2598C3.31742 51.2158 3.23875 51.1566 3.17377 51.0805C3.11049 51.0043 3.0609 50.918 3.0267 50.8216C2.9925 50.7235 2.97711 50.6219 2.97711 50.5153C2.97711 50.4087 2.99421 50.3072 3.0267 50.2091C3.0609 50.1109 3.10878 50.0263 3.17377 49.9519C3.23704 49.8791 3.31742 49.8199 3.41147 49.7759C3.50553 49.7319 3.61326 49.7099 3.73468 49.7099C3.8561 49.7099 3.96384 49.7319 4.05789 49.7759C4.15195 49.8199 4.23061 49.8791 4.2956 49.9519C4.35887 50.0263 4.40846 50.1109 4.44096 50.2091C4.47345 50.3072 4.49055 50.4087 4.49055 50.5153C4.49055 50.6219 4.47345 50.7251 4.44096 50.8216Z" fill="white"/>
<path d="M7.39484 49.7575H7.38458C7.29907 49.6154 7.18108 49.5105 7.03401 49.4411C6.88523 49.3717 6.73132 49.3379 6.56886 49.3379C6.39614 49.3379 6.24052 49.3683 6.10029 49.4293C5.96006 49.4902 5.84036 49.5748 5.74288 49.6797C5.64369 49.7846 5.56674 49.9081 5.51373 50.0503C5.459 50.1924 5.43164 50.343 5.43164 50.5037C5.43164 50.6645 5.459 50.8151 5.51373 50.9555C5.56845 51.096 5.64369 51.2178 5.74288 51.321C5.84207 51.4242 5.96177 51.5072 6.10371 51.5664C6.24565 51.6256 6.40127 51.6561 6.57399 51.6561C6.73645 51.6561 6.88865 51.6222 7.0323 51.5562C7.17595 51.4902 7.28881 51.3938 7.3709 51.2686H7.38116V51.5562C7.38116 51.673 7.36748 51.7813 7.34012 51.8828C7.31276 51.9843 7.26829 52.0706 7.20673 52.1451C7.14517 52.2195 7.06308 52.2771 6.96047 52.3194C6.85787 52.3617 6.73303 52.3837 6.58254 52.3837C6.43205 52.3837 6.27472 52.3498 6.12594 52.2838C5.97716 52.2178 5.85404 52.1298 5.75485 52.0182L5.46926 52.3633C5.61291 52.4919 5.78392 52.5918 5.98229 52.6629C6.18067 52.7339 6.37904 52.7694 6.57741 52.7694C6.8134 52.7694 7.01007 52.7356 7.16911 52.6662C7.32815 52.5969 7.4564 52.5055 7.55559 52.3904C7.65478 52.2754 7.72489 52.1434 7.76593 51.9928C7.80698 51.8422 7.8275 51.6865 7.8275 51.5224V49.3954H7.39313V49.7541L7.39484 49.7575ZM7.35893 50.8032C7.32302 50.8997 7.27 50.9826 7.20331 51.0537C7.13661 51.1247 7.05453 51.1806 6.95876 51.2212C6.863 51.2618 6.75697 51.2821 6.64239 51.2821C6.52782 51.2821 6.41837 51.2601 6.32603 51.2161C6.23368 51.1721 6.15502 51.1146 6.08832 51.0418C6.02334 50.9691 5.97374 50.8862 5.93954 50.7914C5.90534 50.6966 5.88995 50.5968 5.88995 50.4936C5.88995 50.3904 5.90705 50.2855 5.93954 50.189C5.97374 50.0926 6.02163 50.0097 6.08832 49.9386C6.1533 49.8675 6.23368 49.8117 6.32603 49.7677C6.41837 49.7254 6.5244 49.7034 6.64239 49.7034C6.76039 49.7034 6.86129 49.7254 6.95534 49.7677C7.0494 49.81 7.13148 49.8675 7.19989 49.9403C7.26829 50.013 7.32131 50.0959 7.35722 50.1907C7.39313 50.2855 7.41194 50.3853 7.41194 50.4936C7.41194 50.6019 7.39313 50.7068 7.35722 50.8032" fill="white"/>
<path d="M10.4197 49.649C10.3257 49.5474 10.2111 49.4713 10.076 49.4172C9.94092 49.363 9.79043 49.3359 9.62455 49.3359C9.45867 49.3359 9.30305 49.3647 9.16111 49.4239C9.01746 49.4815 8.89262 49.5627 8.78831 49.6676C8.68228 49.7708 8.60019 49.896 8.54205 50.0432C8.4822 50.1887 8.45312 50.3495 8.45312 50.5221C8.45312 50.6947 8.48391 50.8588 8.54376 51.0043C8.60361 51.1499 8.68741 51.2734 8.79173 51.3749C8.89604 51.4781 9.02259 51.556 9.16966 51.6135C9.31673 51.671 9.47577 51.6981 9.64678 51.6981C9.84686 51.6981 10.0298 51.6609 10.194 51.5864C10.3582 51.512 10.5001 51.3952 10.6215 51.2362L10.3069 50.9857C10.2436 51.0805 10.1564 51.16 10.0435 51.226C9.93237 51.292 9.80069 51.3258 9.64678 51.3258C9.54759 51.3258 9.45525 51.3089 9.36803 51.2751C9.28082 51.2412 9.20386 51.1922 9.13717 51.1312C9.07047 51.0703 9.01746 50.9993 8.97813 50.9147C8.93879 50.8317 8.91656 50.7438 8.91314 50.649H10.7139C10.7173 50.6236 10.719 50.5982 10.719 50.5729V50.4967C10.719 50.3173 10.6934 50.1566 10.6421 50.0128C10.5908 49.8689 10.5189 49.7471 10.4249 49.6473M8.90801 50.319C8.91485 50.2311 8.93708 50.1481 8.97642 50.0703C9.01575 49.9925 9.06705 49.9265 9.12862 49.8689C9.19018 49.8131 9.26371 49.7674 9.34751 49.7336C9.4313 49.6997 9.52194 49.6845 9.61771 49.6845C9.72202 49.6845 9.81437 49.7014 9.89303 49.7336C9.9717 49.7657 10.0367 49.8114 10.088 49.8689C10.141 49.9265 10.1803 49.9925 10.2077 50.0703C10.2351 50.1481 10.2504 50.2311 10.2539 50.319H8.9063H8.90801Z" fill="white"/>
<path d="M11.8409 48.7556H11.3963V49.3986H10.9619V49.7624H11.3963V50.9773C11.3963 51.2108 11.4527 51.3851 11.5656 51.5019C11.6784 51.6186 11.8426 51.6761 12.0547 51.6761C12.1248 51.6761 12.1932 51.6711 12.2582 51.6592C12.3232 51.6474 12.383 51.6338 12.4377 51.6135L12.4241 51.2497C12.3864 51.2667 12.3437 51.2802 12.2958 51.2887C12.2479 51.2971 12.2034 51.3022 12.1624 51.3022C12.0512 51.3022 11.9692 51.2734 11.9196 51.2142C11.8683 51.1567 11.8426 51.0602 11.8426 50.9249V49.7607H12.4446V49.3969H11.8426V48.7539L11.8409 48.7556Z" fill="white"/>
<path d="M14.7292 49.605C14.6591 49.5238 14.5719 49.4578 14.4659 49.4087C14.3615 49.3596 14.235 49.3359 14.0879 49.3359C13.9255 49.3359 13.7784 49.3748 13.6484 49.4544C13.5185 49.5322 13.4261 49.627 13.3714 49.737H13.3628V48.0635H12.9131V51.6355H13.3628V50.4459C13.3628 50.2209 13.4193 50.0432 13.5356 49.9079C13.6501 49.7742 13.7972 49.7065 13.9751 49.7065C14.0794 49.7065 14.1649 49.7251 14.2299 49.764C14.2949 49.8013 14.3462 49.852 14.3855 49.9163C14.4231 49.9789 14.4505 50.0517 14.4642 50.1346C14.4778 50.2175 14.4864 50.3038 14.4864 50.3952V51.6372H14.9344V50.248C14.9344 50.1228 14.9173 50.0043 14.8848 49.8943C14.8506 49.7843 14.7993 49.6879 14.7292 49.6067" fill="white"/>
<path d="M17.5145 49.649C17.4204 49.5474 17.3058 49.4713 17.1707 49.4172C17.0356 49.363 16.8852 49.3359 16.7193 49.3359C16.5534 49.3359 16.3978 49.3647 16.2558 49.4239C16.1122 49.4815 15.9873 49.5627 15.883 49.6676C15.777 49.7708 15.6949 49.896 15.6368 50.0432C15.5769 50.1887 15.5479 50.3495 15.5479 50.5221C15.5479 50.6947 15.5786 50.8588 15.6385 51.0043C15.6983 51.1499 15.7821 51.2734 15.8865 51.3749C15.9908 51.4781 16.1173 51.556 16.2644 51.6135C16.4115 51.671 16.5705 51.6981 16.7415 51.6981C16.9416 51.6981 17.1246 51.6609 17.2887 51.5864C17.4529 51.512 17.5948 51.3952 17.7163 51.2362L17.4016 50.9857C17.3383 51.0805 17.2511 51.16 17.1382 51.226C17.0271 51.292 16.8954 51.3258 16.7415 51.3258C16.6423 51.3258 16.55 51.3089 16.4628 51.2751C16.3755 51.2412 16.2986 51.1922 16.2319 51.1312C16.1652 51.0703 16.1122 50.9993 16.0729 50.9147C16.0335 50.8317 16.0113 50.7438 16.0079 50.649H17.8086C17.812 50.6236 17.8137 50.5982 17.8137 50.5729V50.4967C17.8137 50.3173 17.7881 50.1566 17.7368 50.0128C17.6855 49.8689 17.6137 49.7471 17.5196 49.6473M16.0044 50.319C16.0113 50.2311 16.0335 50.1481 16.0729 50.0703C16.1122 49.9925 16.1635 49.9265 16.2251 49.8689C16.2866 49.8131 16.3602 49.7674 16.4439 49.7336C16.5277 49.6997 16.6184 49.6845 16.7141 49.6845C16.8185 49.6845 16.9108 49.7014 16.9895 49.7336C17.0681 49.7657 17.1331 49.8114 17.1844 49.8689C17.2374 49.9265 17.2768 49.9925 17.3041 50.0703C17.3315 50.1481 17.3469 50.2311 17.3503 50.319H16.0027H16.0044Z" fill="white"/>
<path d="M19.1494 49.4561C19.0263 49.5356 18.9339 49.6422 18.8707 49.7759H18.857C18.857 49.7285 18.857 49.6676 18.8518 49.5931C18.8484 49.5187 18.8433 49.4544 18.8382 49.3969H18.4141C18.4209 49.4696 18.4243 49.5525 18.4277 49.6473C18.4312 49.742 18.4329 49.8199 18.4329 49.8791V51.6372H18.8809V50.4612C18.8809 50.3664 18.8929 50.2767 18.9185 50.1887C18.9442 50.1025 18.9835 50.0263 19.0348 49.9603C19.0878 49.8943 19.1528 49.8419 19.2332 49.8013C19.3136 49.7623 19.4059 49.742 19.5154 49.742C19.5889 49.742 19.6573 49.7505 19.7206 49.7657L19.7394 49.3545C19.6915 49.3427 19.6334 49.3359 19.5633 49.3359C19.4111 49.3359 19.2725 49.3765 19.1494 49.4561Z" fill="white"/>
<path d="M21.3779 51.6373H21.8499V50.1448H23.3839V49.7421H21.8499V48.7032H23.4882V48.292H21.3779V51.6373Z" fill="white"/>
<path d="M25.7785 49.6676C25.669 49.5644 25.5391 49.4831 25.3886 49.4239C25.2381 49.3664 25.0773 49.3359 24.9063 49.3359C24.7353 49.3359 24.5728 49.3647 24.4241 49.4239C24.2736 49.4815 24.1453 49.5627 24.0376 49.6676C23.9298 49.7708 23.8443 49.8943 23.7828 50.0382C23.7212 50.182 23.6904 50.3393 23.6904 50.5136C23.6904 50.6879 23.7212 50.8453 23.7828 50.9908C23.8443 51.1363 23.9298 51.2615 24.0376 51.3664C24.1453 51.4714 24.2753 51.5543 24.4241 51.6118C24.5728 51.6693 24.7336 51.6998 24.9063 51.6998C25.079 51.6998 25.2398 51.671 25.3886 51.6118C25.5391 51.5526 25.6673 51.4714 25.7785 51.3664C25.8879 51.2615 25.9734 51.1363 26.0367 50.9908C26.0983 50.847 26.129 50.6862 26.129 50.5136C26.129 50.341 26.0983 50.182 26.0367 50.0382C25.9751 49.8943 25.8879 49.7708 25.7785 49.6676ZM25.6109 50.8216C25.5767 50.9197 25.5288 51.006 25.4655 51.0805C25.4022 51.1566 25.3219 51.2158 25.2278 51.2598C25.1338 51.3038 25.026 51.3258 24.9046 51.3258C24.7832 51.3258 24.6755 51.3038 24.5814 51.2598C24.4873 51.2158 24.4087 51.1566 24.3437 51.0805C24.2804 51.0043 24.2308 50.918 24.1966 50.8216C24.1624 50.7235 24.147 50.6219 24.147 50.5153C24.147 50.4087 24.1641 50.3072 24.1966 50.2091C24.2308 50.1109 24.2787 50.0263 24.3437 49.9519C24.407 49.8791 24.4873 49.8199 24.5814 49.7759C24.6755 49.7319 24.7832 49.7099 24.9046 49.7099C25.026 49.7099 25.1338 49.7319 25.2278 49.7759C25.3219 49.8199 25.4005 49.8791 25.4655 49.9519C25.5288 50.0263 25.5784 50.1109 25.6109 50.2091C25.6434 50.3072 25.6605 50.4087 25.6605 50.5153C25.6605 50.6219 25.6434 50.7251 25.6109 50.8216Z" fill="white"/>
<path d="M27.4697 49.4561C27.3466 49.5356 27.2542 49.6422 27.191 49.7759H27.1773C27.1773 49.7285 27.1773 49.6676 27.1722 49.5931C27.1687 49.5187 27.1636 49.4544 27.1585 49.3969H26.7344C26.7412 49.4696 26.7446 49.5525 26.7481 49.6473C26.7515 49.742 26.7532 49.8199 26.7532 49.8791V51.6372H27.2012V50.4612C27.2012 50.3664 27.2132 50.2767 27.2389 50.1887C27.2645 50.1025 27.3038 50.0263 27.3551 49.9603C27.4082 49.8943 27.4731 49.8419 27.5535 49.8013C27.6339 49.7623 27.7262 49.742 27.8357 49.742C27.9092 49.742 27.9776 49.7505 28.0409 49.7657L28.0597 49.3545C28.0118 49.3427 27.9537 49.3359 27.8836 49.3359C27.7314 49.3359 27.5928 49.3765 27.4697 49.4561Z" fill="white"/>
<path d="M32.0936 48.6846C31.9175 48.5492 31.7225 48.4494 31.5053 48.3867C31.2882 48.3241 31.0727 48.292 30.8555 48.292H29.6943V51.6373H30.8555C31.0727 51.6373 31.2882 51.6034 31.5053 51.5357C31.7225 51.468 31.9175 51.3648 32.0936 51.2278C32.268 51.0907 32.41 50.9181 32.5177 50.7083C32.6255 50.4985 32.6802 50.2514 32.6802 49.9638C32.6802 49.6761 32.6255 49.4138 32.5177 49.2023C32.41 48.9908 32.268 48.8182 32.0936 48.6829M32.0697 50.4985C31.9996 50.6558 31.9021 50.7878 31.7755 50.8961C31.649 51.0027 31.5002 51.0856 31.3275 51.1415C31.1548 51.199 30.9649 51.2261 30.7614 51.2261H30.1697V48.6981H30.7614C30.9649 48.6981 31.1548 48.7252 31.3275 48.781C31.5002 48.8368 31.6507 48.9164 31.7755 49.0213C31.9021 49.1262 31.9996 49.2582 32.0697 49.4155C32.1398 49.5729 32.174 49.7557 32.174 49.9638C32.174 50.1719 32.1381 50.3394 32.0697 50.4985Z" fill="white"/>
<path d="M35.1268 49.649C35.0327 49.5474 34.9181 49.4713 34.783 49.4172C34.6479 49.363 34.4975 49.3359 34.3316 49.3359C34.1657 49.3359 34.0101 49.3647 33.8681 49.4239C33.7245 49.4815 33.5997 49.5627 33.4953 49.6676C33.3893 49.7708 33.3072 49.896 33.2491 50.0432C33.1892 50.1887 33.1602 50.3495 33.1602 50.5221C33.1602 50.6947 33.1909 50.8588 33.2508 51.0043C33.3106 51.1499 33.3944 51.2734 33.4988 51.3749C33.6031 51.4781 33.7296 51.556 33.8767 51.6135C34.0238 51.671 34.1828 51.6981 34.3538 51.6981C34.5539 51.6981 34.7369 51.6609 34.901 51.5864C35.0652 51.512 35.2072 51.3952 35.3286 51.2362L35.0139 50.9857C34.9506 51.0805 34.8634 51.16 34.7506 51.226C34.6394 51.292 34.5077 51.3258 34.3538 51.3258C34.2546 51.3258 34.1623 51.3089 34.0751 51.2751C33.9878 51.2412 33.9109 51.1922 33.8442 51.1312C33.7775 51.0703 33.7245 50.9993 33.6852 50.9147C33.6458 50.8317 33.6236 50.7438 33.6202 50.649H35.4209C35.4243 50.6236 35.426 50.5982 35.426 50.5729V50.4967C35.426 50.3173 35.4004 50.1566 35.3491 50.0128C35.2978 49.8689 35.226 49.7471 35.1319 49.6473M33.6168 50.319C33.6236 50.2311 33.6458 50.1481 33.6852 50.0703C33.7245 49.9925 33.7758 49.9265 33.8374 49.8689C33.8989 49.8131 33.9725 49.7674 34.0563 49.7336C34.14 49.6997 34.2307 49.6845 34.3264 49.6845C34.4308 49.6845 34.5231 49.7014 34.6018 49.7336C34.6804 49.7657 34.7454 49.8114 34.7967 49.8689C34.8497 49.9265 34.8891 49.9925 34.9164 50.0703C34.9438 50.1481 34.9592 50.2311 34.9626 50.319H33.615H33.6168Z" fill="white"/>
<path d="M36.8697 51.1599H36.8594L36.1959 49.3984H35.6982L36.62 51.6371H37.1074L38.0154 49.3984H37.5383L36.8697 51.1599Z" fill="white"/>
<path d="M40.2708 49.649C40.1768 49.5474 40.0622 49.4713 39.9254 49.4172C39.7903 49.363 39.6398 49.3359 39.4739 49.3359C39.308 49.3359 39.1524 49.3647 39.0088 49.4239C38.8651 49.4815 38.7403 49.5627 38.636 49.6676C38.5299 49.7708 38.4479 49.896 38.3897 50.0432C38.3299 50.1887 38.3008 50.3495 38.3008 50.5221C38.3008 50.6947 38.3316 50.8588 38.3914 51.0043C38.4513 51.1499 38.5351 51.2734 38.6394 51.3749C38.7437 51.4781 38.8702 51.556 39.0173 51.6135C39.1644 51.671 39.3234 51.6981 39.4944 51.6981C39.6945 51.6981 39.8775 51.6609 40.0417 51.5864C40.2058 51.512 40.3478 51.3952 40.4692 51.2362L40.1545 50.9857C40.0913 51.0805 40.004 51.16 39.8912 51.226C39.78 51.292 39.6483 51.3258 39.4944 51.3258C39.3952 51.3258 39.3029 51.3089 39.2157 51.2751C39.1285 51.2412 39.0515 51.1922 38.9848 51.1312C38.9181 51.0703 38.8651 50.9993 38.8258 50.9147C38.7865 50.8317 38.7642 50.7438 38.7608 50.649H40.5615C40.565 50.6236 40.5667 50.5982 40.5667 50.5729V50.4967C40.5667 50.3173 40.541 50.1566 40.4897 50.0128C40.4384 49.8689 40.3666 49.7471 40.2725 49.6473M38.7608 50.319C38.7676 50.2311 38.7899 50.1481 38.8292 50.0703C38.8685 49.9925 38.9198 49.9265 38.9814 49.8689C39.043 49.8131 39.1165 49.7674 39.2003 49.7336C39.2841 49.6997 39.3747 49.6845 39.4705 49.6845C39.5748 49.6845 39.6672 49.7014 39.7458 49.7336C39.8245 49.7657 39.8895 49.8114 39.9408 49.8689C39.9938 49.9265 40.0331 49.9925 40.0605 50.0703C40.0878 50.1481 40.1032 50.2311 40.1067 50.319H38.7591H38.7608Z" fill="white"/>
<path d="M41.646 48.0654H41.1963V51.6374H41.646V48.0654Z" fill="white"/>
<path d="M44.3683 49.6676C44.2589 49.5644 44.1289 49.4831 43.9784 49.4239C43.8279 49.3664 43.6672 49.3359 43.4962 49.3359C43.3251 49.3359 43.1627 49.3647 43.0139 49.4239C42.8634 49.4815 42.7352 49.5627 42.6274 49.6676C42.5197 49.7708 42.4342 49.8943 42.3726 50.0382C42.3111 50.182 42.2803 50.3393 42.2803 50.5136C42.2803 50.6879 42.3111 50.8453 42.3726 50.9908C42.4342 51.1363 42.5197 51.2615 42.6274 51.3664C42.7352 51.4714 42.8651 51.5543 43.0139 51.6118C43.1627 51.6693 43.3234 51.6998 43.4962 51.6998C43.6689 51.6998 43.8296 51.671 43.9784 51.6118C44.1289 51.5526 44.2572 51.4714 44.3683 51.3664C44.4778 51.2615 44.5633 51.1363 44.6265 50.9908C44.6881 50.847 44.7189 50.6862 44.7189 50.5136C44.7189 50.341 44.6881 50.182 44.6265 50.0382C44.565 49.8943 44.4778 49.7708 44.3683 49.6676ZM44.2024 50.8216C44.1682 50.9197 44.1203 51.006 44.0571 51.0805C43.9938 51.1566 43.9134 51.2158 43.8194 51.2598C43.7253 51.3038 43.6176 51.3258 43.4962 51.3258C43.3747 51.3258 43.267 51.3038 43.1729 51.2598C43.0789 51.2158 43.0002 51.1566 42.9352 51.0805C42.872 51.0043 42.8224 50.918 42.7882 50.8216C42.754 50.7235 42.7386 50.6219 42.7386 50.5153C42.7386 50.4087 42.7557 50.3072 42.7882 50.2091C42.8224 50.1109 42.8703 50.0263 42.9352 49.9519C42.9985 49.8791 43.0789 49.8199 43.1729 49.7759C43.267 49.7319 43.3747 49.7099 43.4962 49.7099C43.6176 49.7099 43.7253 49.7319 43.8194 49.7759C43.9134 49.8199 43.9921 49.8791 44.0571 49.9519C44.1203 50.0263 44.1699 50.1109 44.2024 50.2091C44.2349 50.3072 44.252 50.4087 44.252 50.5153C44.252 50.6219 44.2349 50.7251 44.2024 50.8216Z" fill="white"/>
<path d="M47.4264 49.676C47.3272 49.5694 47.2075 49.4848 47.069 49.4256C46.9305 49.3664 46.7783 49.3359 46.609 49.3359C46.4209 49.3359 46.2567 49.3749 46.1165 49.451C45.9745 49.5288 45.8685 49.627 45.795 49.7471H45.7813V49.3969H45.3418V52.7709H45.7898V51.3021H45.8035C45.8856 51.4274 45.9985 51.5255 46.1421 51.5949C46.2841 51.6643 46.438 51.6998 46.5987 51.6998C46.7732 51.6998 46.9305 51.6693 47.0707 51.6067C47.2109 51.5458 47.3289 51.4612 47.4281 51.3546C47.5273 51.248 47.6026 51.1211 47.6573 50.9773C47.712 50.8317 47.7377 50.6778 47.7377 50.5136C47.7377 50.3495 47.7103 50.1955 47.6573 50.0534C47.6026 49.9096 47.5256 49.7843 47.4264 49.6777M47.2332 50.8148C47.2007 50.913 47.1528 50.9993 47.0895 51.0754C47.0262 51.1515 46.9476 51.2125 46.8535 51.2581C46.7595 51.3038 46.65 51.3275 46.5269 51.3275C46.4123 51.3275 46.308 51.3055 46.214 51.2615C46.1199 51.2175 46.0395 51.1583 45.9728 51.0839C45.9061 51.0094 45.8548 50.9248 45.8172 50.8267C45.7796 50.7285 45.7625 50.627 45.7625 50.5187C45.7625 50.4104 45.7813 50.3089 45.8172 50.2107C45.8531 50.1126 45.9061 50.0263 45.9728 49.9502C46.0395 49.874 46.1199 49.8148 46.214 49.7708C46.308 49.7268 46.4123 49.7048 46.5269 49.7048C46.6517 49.7048 46.7595 49.7268 46.8535 49.7708C46.9476 49.8148 47.0262 49.874 47.0895 49.9502C47.1528 50.0263 47.2007 50.1126 47.2332 50.2107C47.2657 50.3089 47.2811 50.4087 47.2811 50.5136C47.2811 50.6185 47.2657 50.7184 47.2332 50.8165" fill="white"/>
<path d="M51.6396 49.605C51.5695 49.5238 51.4823 49.4578 51.3762 49.4087C51.2719 49.3596 51.1454 49.3359 50.9983 49.3359C50.8359 49.3359 50.6854 49.3749 50.5503 49.451C50.4135 49.5288 50.3074 49.6388 50.2305 49.7843C50.1604 49.6236 50.0646 49.5085 49.9415 49.4392C49.8183 49.3698 49.6815 49.3359 49.5276 49.3359C49.3549 49.3359 49.2061 49.3782 49.0813 49.4612C48.9564 49.5458 48.8641 49.6473 48.806 49.7657H48.7923C48.7923 49.7183 48.7923 49.6591 48.7871 49.5881C48.7837 49.517 48.7786 49.4527 48.7735 49.3969H48.3477C48.3545 49.4696 48.3579 49.5525 48.3613 49.6473C48.3648 49.742 48.3665 49.8199 48.3665 49.8791V51.6372H48.8145V50.4459C48.8145 50.2226 48.8692 50.0432 48.9787 49.9096C49.0881 49.7759 49.2266 49.7082 49.3925 49.7082C49.4815 49.7082 49.5567 49.7234 49.6166 49.7539C49.6764 49.7843 49.726 49.8249 49.7653 49.8774C49.803 49.9299 49.8303 49.9925 49.8457 50.0635C49.8611 50.1363 49.8696 50.2158 49.8696 50.3038V51.6372H50.3177V50.4273C50.3177 50.3393 50.328 50.253 50.3485 50.1684C50.369 50.0838 50.4032 50.0077 50.4494 49.94C50.4955 49.8723 50.5554 49.8165 50.6289 49.7742C50.7025 49.7319 50.7897 49.7099 50.8923 49.7099C50.9949 49.7099 51.0719 49.7285 51.1351 49.7657C51.1984 49.803 51.2497 49.8537 51.2873 49.9163C51.3249 49.9789 51.3523 50.0517 51.3677 50.1329C51.3831 50.2141 51.3916 50.3021 51.3916 50.3935V51.6355H51.8397V50.2463C51.8397 50.1211 51.8226 50.0026 51.7901 49.8926C51.7559 49.7826 51.7046 49.6862 51.6345 49.605" fill="white"/>
<path d="M54.4261 49.649C54.332 49.5474 54.2175 49.4713 54.0807 49.4172C53.9456 49.363 53.7951 49.3359 53.6292 49.3359C53.4633 49.3359 53.3077 49.3647 53.164 49.4239C53.0204 49.4815 52.8956 49.5627 52.7912 49.6676C52.6852 49.7708 52.6031 49.896 52.545 50.0432C52.4851 50.1887 52.4561 50.3495 52.4561 50.5221C52.4561 50.6947 52.4868 50.8588 52.5467 51.0043C52.6065 51.1499 52.6903 51.2734 52.7947 51.3749C52.899 51.4781 53.0255 51.556 53.1726 51.6135C53.3197 51.671 53.4787 51.6981 53.6497 51.6981C53.8498 51.6981 54.0328 51.6609 54.1969 51.5864C54.3611 51.512 54.503 51.3952 54.6245 51.2362L54.3098 50.9857C54.2465 51.0805 54.1593 51.16 54.0464 51.226C53.9353 51.292 53.8036 51.3258 53.6497 51.3258C53.5505 51.3258 53.4582 51.3089 53.371 51.2751C53.2837 51.2412 53.2068 51.1922 53.1401 51.1312C53.0734 51.0703 53.0204 50.9993 52.9811 50.9147C52.9417 50.8317 52.9195 50.7438 52.9161 50.649H54.7168C54.7202 50.6236 54.7219 50.5982 54.7219 50.5729V50.4967C54.7219 50.3173 54.6963 50.1566 54.645 50.0128C54.5937 49.8689 54.5219 49.7471 54.4278 49.6473M52.9161 50.319C52.9229 50.2311 52.9451 50.1481 52.9862 50.0703C53.0255 49.9925 53.0768 49.9265 53.1384 49.8689C53.1999 49.8131 53.2735 49.7674 53.3573 49.7336C53.4411 49.6997 53.5317 49.6845 53.6275 49.6845C53.7318 49.6845 53.8241 49.7014 53.9028 49.7336C53.9815 49.7657 54.0465 49.8114 54.0978 49.8689C54.1508 49.9265 54.1901 49.9925 54.2175 50.0703C54.2448 50.1481 54.2602 50.2311 54.2636 50.319H52.9161Z" fill="white"/>
<path d="M57.157 49.605C57.0868 49.5238 56.9996 49.4578 56.8936 49.4087C56.7893 49.3596 56.6627 49.3359 56.5157 49.3359C56.4336 49.3359 56.3532 49.3478 56.2763 49.3698C56.1993 49.3918 56.1292 49.4222 56.0659 49.4612C56.0026 49.5001 55.9462 49.5458 55.8966 49.5982C55.847 49.6507 55.8077 49.7065 55.7786 49.7657H55.7649C55.7649 49.7183 55.7649 49.6591 55.7598 49.5881C55.7564 49.517 55.7513 49.4527 55.7461 49.3969H55.3203C55.3272 49.4696 55.3323 49.5525 55.334 49.6473C55.3374 49.742 55.3391 49.8199 55.3391 49.8791V51.6372H55.7872V50.4459C55.7872 50.2226 55.8436 50.0432 55.9565 49.9096C56.0693 49.7759 56.2147 49.7082 56.3943 49.7082C56.4986 49.7082 56.5858 49.7268 56.6525 49.764C56.7192 49.8013 56.7722 49.852 56.8098 49.9146C56.8474 49.9772 56.8748 50.05 56.8885 50.1312C56.9022 50.2124 56.909 50.3004 56.909 50.3918V51.6338H57.357V50.2446C57.357 50.1194 57.3399 50.0009 57.3075 49.8909C57.2733 49.781 57.2219 49.6845 57.1518 49.6033" fill="white"/>
<path d="M59.228 49.7622V49.3984H58.6261V48.7554H58.1814V49.3984H57.7471V49.7622H58.1814V50.9771C58.1814 51.2106 58.2379 51.3849 58.3507 51.5016C58.4636 51.6184 58.6261 51.6759 58.8398 51.6759C58.9099 51.6759 58.9783 51.6708 59.0433 51.659C59.1083 51.6472 59.1682 51.6336 59.2229 51.6133L59.2092 51.2495C59.1716 51.2664 59.1288 51.28 59.0809 51.2884C59.0331 51.2969 58.9886 51.302 58.9476 51.302C58.8364 51.302 58.7543 51.2732 58.7047 51.214C58.6534 51.1565 58.6278 51.06 58.6278 50.9246V49.7605H59.2297L59.228 49.7622Z" fill="white"/>
</g>
<defs>
<linearGradient id="paint0_linear_623_5870" x1="81.9197" y1="4.70443" x2="61.9816" y2="51.7868" gradientUnits="userSpaceOnUse">
<stop stop-color="#245EAC"/>
<stop offset="0.16" stop-color="#8AD0C1"/>
<stop offset="0.31" stop-color="#86D0CE"/>
<stop offset="0.48" stop-color="#9478B6"/>
<stop offset="0.65" stop-color="#E798C2"/>
<stop offset="0.82" stop-color="#F26B36"/>
<stop offset="1" stop-color="#F59495"/>
</linearGradient>
<linearGradient id="paint1_linear_623_5870" x1="73.5999" y1="19.0083" x2="86.5929" y2="32.649" gradientUnits="userSpaceOnUse">
<stop stop-color="#2D4DA1"/>
<stop offset="0.15" stop-color="#4974AA"/>
<stop offset="0.31" stop-color="#6095B2"/>
<stop offset="0.47" stop-color="#72AFB8"/>
<stop offset="0.63" stop-color="#7FC1BD"/>
<stop offset="0.81" stop-color="#87CCC0"/>
<stop offset="1" stop-color="#8AD0C1"/>
</linearGradient>
<linearGradient id="paint2_linear_623_5870" x1="86.4436" y1="7.20435" x2="59.0973" y2="49.8763" gradientUnits="userSpaceOnUse">
<stop stop-color="#245EAC"/>
<stop offset="0.16" stop-color="#8AD0C1"/>
<stop offset="0.31" stop-color="#86D0CE"/>
<stop offset="0.48" stop-color="#9478B6"/>
<stop offset="0.65" stop-color="#E798C2"/>
<stop offset="0.82" stop-color="#F26B36"/>
<stop offset="1" stop-color="#F59495"/>
</linearGradient>
<linearGradient id="paint3_linear_623_5870" x1="62.1307" y1="22.221" x2="56.2491" y2="31.5624" gradientUnits="userSpaceOnUse">
<stop stop-color="#2D4DA1"/>
<stop offset="1" stop-color="#8AD0C1"/>
</linearGradient>
<clipPath id="clip0_623_5870">
<rect width="88.869" height="67.7708" fill="white"/>
</clipPath>
</defs>
</svg>
