<svg width="14" height="14" viewBox="0 0 14 14" fill="none" xmlns="http://www.w3.org/2000/svg">
<path fill-rule="evenodd" clip-rule="evenodd" d="M3.44708 10.6765C3.45211 10.6765 3.45381 10.676 3.45432 10.6765H3.44708ZM10.0453 8.60579C10.0453 8.14835 10.4161 7.77751 10.8735 7.77751C11.331 7.77751 11.7018 8.14835 11.7018 8.60579V10.6818C11.7018 11.5848 10.9619 12.3331 10.0526 12.3331H3.44708C2.54213 12.3331 1.79785 11.5907 1.79785 10.6803V4.04643C1.79785 3.13928 2.54261 2.39368 3.4554 2.39368H5.07556C5.53301 2.39368 5.90385 2.76452 5.90385 3.22197C5.90385 3.67941 5.53301 4.05025 5.07556 4.05025C5.07556 4.05025 3.45441 4.05376 3.45441 4.04643C3.45441 4.04643 3.45436 10.6765 3.45432 10.6765C3.45432 10.6765 10.0459 10.6759 10.0453 10.6818V8.60579ZM9.54016 5.70305L7.44135 7.80185C7.05507 8.18813 6.43142 8.19077 6.04237 7.80172C5.65602 7.41536 5.65322 6.79176 6.04224 6.40274L8.14104 4.30393L7.43504 3.59793C7.05741 3.2203 7.18033 2.84219 7.72112 2.76494L10.6596 2.34515C11.2043 2.26734 11.5762 2.64366 11.4989 3.18445L11.0792 6.12297C11.0014 6.66759 10.629 6.79185 10.2462 6.40906L9.54016 5.70305Z" fill="white"/>
</svg>
