<svg width="54" height="47" viewBox="0 0 54 47" fill="none" xmlns="http://www.w3.org/2000/svg">
<path fill-rule="evenodd" clip-rule="evenodd" d="M37.5686 38.7575C42.6886 39.3012 49.2188 38.3143 49.2188 35.7969C49.2188 31.6562 47.0104 25.5833 40.3854 25.5833C38.2319 25.5833 36.5451 26.225 35.2491 27.2334C36.8222 29.9085 37.625 33.4254 37.625 37.8672C37.625 38.1707 37.6062 38.4675 37.5686 38.7575ZM19.4062 20.0625C14.8326 20.0625 11.125 16.3549 11.125 11.7812C11.125 7.20764 14.8326 3.5 19.4062 3.5C23.9799 3.5 27.6875 7.20764 27.6875 11.7812C27.6875 16.3549 23.9799 20.0625 19.4062 20.0625ZM40.3854 23.375C36.7265 23.375 33.7604 20.4089 33.7604 16.75C33.7604 13.0911 36.7265 10.125 40.3854 10.125C44.0443 10.125 47.0104 13.0911 47.0104 16.75C47.0104 20.4089 44.0443 23.375 40.3854 23.375ZM19.4062 23.375C28.2396 23.375 34.3125 26.6875 34.3125 38.2812C34.3125 41.4132 31 44.9062 19.4062 44.9062C7.8125 44.9062 4.5 41.7743 4.5 38.2812C4.5 26.6875 10.5729 23.375 19.4062 23.375Z" stroke="#FECD0F" stroke-width="1.5"/>
</svg>
